<?xml version="1.0" standalone="no"?>
<!DOCTYPE svg PUBLIC "-//W3C//DTD SVG 20010904//EN"
 "http://www.w3.org/TR/2001/REC-SVG-20010904/DTD/svg10.dtd">
<svg version="1.0" xmlns="http://www.w3.org/2000/svg"
 width="201.000000pt" height="201.000000pt" viewBox="0 0 201.000000 201.000000"
 preserveAspectRatio="xMidYMid meet">
<metadata>
Created by potrace 1.14, written by Peter Selinger 2001-2017
</metadata>
<g transform="translate(0.000000,201.000000) scale(0.100000,-0.100000)"
fill="#000000" stroke="none">
<path d="M819 1889 c-32 -9 -65 -21 -72 -28 -11 -8 -22 -9 -41 -1 -46 17 -79
12 -152 -25 -166 -83 -284 -223 -329 -393 -17 -68 -17 -236 0 -304 56 -211
233 -386 445 -439 l65 -16 -106 2 c-115 2 -149 -5 -149 -31 0 -10 -3 -14 -8
-10 -4 4 -7 13 -7 19 0 17 -42 23 -142 22 -58 -1 -97 -5 -105 -13 -7 -7 -13
-42 -14 -79 l-3 -68 50 -46 c42 -39 50 -52 53 -87 4 -49 -22 -98 -59 -112 -33
-12 -46 -50 -43 -118 4 -81 23 -92 153 -92 l102 0 10 33 10 32 7 -34 8 -33
157 6 c86 4 172 9 191 11 33 3 77 6 310 21 153 10 161 11 190 33 28 20 28 20
46 0 53 -59 258 63 357 211 116 176 132 398 42 588 -72 153 -200 269 -354 322
l-56 20 65 -1 c36 0 74 2 85 5 11 2 24 5 28 5 4 1 11 11 16 23 l8 23 7 -23
c10 -29 33 -34 144 -29 110 5 117 11 116 95 -1 75 -8 93 -45 117 -43 28 -62
69 -54 114 7 37 39 81 61 81 22 0 33 26 35 80 4 127 2 130 -140 130 l-107 0
-11 -27 c-10 -26 -11 -26 -12 -5 -1 12 -7 25 -13 27 -7 2 -163 6 -347 7 -281
3 -343 0 -392 -13z m771 -199 c0 -47 -3 -60 -15 -60 -15 0 -17 6 -17 60 0 54
2 60 17 60 12 0 15 -13 15 -60z m2 -150 c2 -5 1 -32 0 -60 -3 -35 -8 -50 -18
-50 -14 0 -16 6 -16 60 0 54 2 60 16 60 8 0 16 -4 18 -10z m-1101 -1043 c5
-57 1 -77 -16 -77 -17 0 -21 20 -16 77 2 27 8 43 16 43 8 0 14 -16 16 -43z
m-2 -179 c10 -26 5 -78 -9 -92 -17 -17 -23 5 -21 77 1 41 17 49 30 15z"/>
</g>
</svg>
